<?xml version="1.0" standalone="no"?>
<!DOCTYPE svg PUBLIC "-//W3C//DTD SVG 20010904//EN"
 "http://www.w3.org/TR/2001/REC-SVG-20010904/DTD/svg10.dtd">
<svg version="1.0" xmlns="http://www.w3.org/2000/svg"
 width="1024.000000pt" height="1024.000000pt" viewBox="0 0 1024.000000 1024.000000"
 preserveAspectRatio="xMidYMid meet">
<metadata>
Created by potrace 1.14, written by Peter Selinger 2001-2017
</metadata>
<g transform="translate(0.000000,1024.000000) scale(0.100000,-0.100000)"
fill="#000000" stroke="none">
<path d="M1169 10236 c-2 -2 -31 -7 -64 -10 -70 -8 -221 -47 -294 -76 -285
-112 -527 -331 -669 -607 -46 -89 -107 -264 -118 -340 -3 -27 -9 -57 -13 -68
-3 -11 -7 -1804 -8 -3985 -2 -4122 -3 -4030 37 -4180 96 -368 334 -666 665
-833 79 -39 256 -100 325 -112 25 -4 54 -10 65 -14 33 -10 7943 -11 8015 0
112 16 123 18 193 38 190 55 336 132 477 250 243 205 391 468 445 795 20 119
20 7931 0 8051 -19 112 -22 123 -54 223 -101 308 -330 577 -619 725 -75 39
-201 89 -259 102 -10 3 -36 9 -58 14 -22 6 -58 13 -80 17 -40 8 -7978 17
-7986 10z"/>
</g>
</svg>
